PathFileType	4	(X/Y/Z)	C:\Users\WrightLab\Desktop\Jo\P5V24.trc
DataRate	CameraRate	NumFrames	NumMarkers	Units	OrigDataRate	OrigDataStartFrame	OrigNumFrames
100.00	100.00	      7	19	mm	100.00	436	      1161
Frame#	Time	Headset_Front			Headset_Back			Headset_Left			Headset_Right			Left_Shoulder			Right_Shoulder			Sternum			C7			Left Elbow			Right Elbow			Left Wrist			Right Wrist			Left ASIS			Right ASIS			S2			Left Knee			Right Knee			Left Ankle			Right Ankle			
		X1	Y1	Z1	X2	Y2	Z2	X3	Y3	Z3	X4	Y4	Z4	X5	Y5	Z5	X6	Y6	Z6	X7	Y7	Z7	X8	Y8	Z8	X9	Y9	Z9	X10	Y10	Z10	X11	Y11	Z11	X12	Y12	Z12	X13	Y13	Z13	X14	Y14	Z14	X15	Y15	Z15	X16	Y16	Z16	X17	Y17	Z17	X18	Y18	Z18	X19	Y19	Z19	

436	4.350	80.90620	1430.57202	-162.37172							-17.55317	1538.26086	-121.24658	-1.30339	1494.35486	-518.36658	-148.21643	1460.15930	-158.99194	-40.17021	1301.61963	-301.59369	-199.75589	1539.66260	-367.01718	45.68694	1300.80945	-444.19586	-101.75455	1222.28003	-27.79968	105.04744	1574.67529	-315.55670	115.90322	1110.42188	31.42965	-5.38850	922.68152	-397.91458	-177.28085	952.21472	-169.23915	-275.67612	997.67438	-458.91055	6.16187	495.95895	-411.96875	-298.08453	509.82944	-137.01038	-84.39214	81.07462	-383.36423	-476.31924	132.32867	-229.36729	
437	4.360	82.78655	1430.28333	-162.63902							-15.52883	1537.69189	-121.41081	-0.08903	1493.47021	-518.54895	-145.60095	1460.15881	-160.13660	-37.65447	1301.21301	-301.96402	-197.52864	1540.17676	-368.20508	47.50071	1300.92773	-445.46594	-99.58758	1222.63623	-28.56365	107.26940	1574.42664	-316.33929	119.10336	1109.87097	31.29082	-4.38528	922.59326	-398.19669	-175.90254	952.36487	-169.70689	-274.44611	997.99005	-459.38550	6.15443	495.92419	-412.23355	-297.64993	510.26230	-137.40497	-84.31001	80.63904	-383.54401	-475.77774	132.56134	-229.42082	
438	4.370	85.28454	1430.74036	-162.84584							-13.46780	1537.89624	-122.05946	2.29893	1492.90173	-518.87701	-142.89905	1459.70752	-159.24606	-36.75242	1300.95349	-302.32413	-194.74370	1540.00854	-367.44791	49.29193	1300.13354	-445.52930	-96.59419	1222.58972	-29.29190	-24.06775	1236.69751	-623.10297	120.64715	1109.72949	31.16854	-2.82126	922.37439	-398.70175	-175.11592	951.85291	-169.92155	-273.19196	998.25293	-459.85931	6.10358	495.66284	-412.32480	-297.05264	510.67288	-137.58902	-84.47815	80.77316	-384.40363	-474.95407	133.13814	-229.66147	
439	4.380	87.84459	1430.02246	-163.04742							-11.68122	1537.73169	-122.28712	4.80276	1492.91577	-519.29797	-139.93010	1460.84094	-159.20905	-34.31853	1301.01831	-304.01361	-192.67596	1540.30359	-368.04297	50.70466	1300.05371	-445.36322	-94.23698	1222.27808	-29.75335	112.01201	1573.84668	-315.88263	123.26217	1109.62085	30.23542	-1.47509	922.12634	-400.14047	-174.00032	952.12592	-170.44524	-271.93353	998.56506	-460.32422	5.85455	495.29019	-412.56186	-296.28375	511.08188	-137.47598	-84.31018	80.68587	-383.92010	-474.57465	133.87604	-229.99336	
440	4.390	88.70689	1429.66443	-163.23746							-8.96973	1537.10791	-122.70734	6.40435	1492.74902	-519.42584	-139.60413	1460.26733	-160.92366	-32.51369	1300.35559	-303.34058	-190.62720	1540.39075	-369.15701	52.02108	1300.50256	-445.84973	-91.95464	1222.47021	-29.99984	113.94225	1573.93701	-317.00784	125.26820	1109.44617	30.27671	-0.08786	921.89691	-400.16547	-172.36644	952.38312	-171.39838	-270.77167	998.69745	-460.47861	5.57840	495.06268	-412.99094	-295.50095	512.07959	-137.49825	-84.16875	80.46062	-383.81158	-473.52789	134.24600	-229.94228	
441	4.400	89.83298	1429.61926	-165.17918							-7.39101	1537.20691	-122.90453	8.69019	1492.85193	-519.81250	-136.10855	1460.15674	-161.28816	-30.61914	1300.61780	-304.27298	-188.77129	1540.65479	-369.48291	54.15130	1300.06409	-446.21552	-89.78863	1222.57983	-30.33209	-18.34711	1235.68579	-623.75836	126.87691	1109.19043	30.22169	0.35546	922.03296	-400.32074	-171.16151	951.97955	-172.39987	-269.44073	998.86835	-460.85876	5.12812	494.65701	-413.58902	-294.93353	512.10211	-137.39241	-84.08724	80.52631	-383.96796	-472.95801	134.79790	-230.52530	
442	4.410	93.54639	1429.87366	-164.03465							-5.65330	1537.25879	-123.37469	10.94380	1492.59338	-520.17181	-134.85022	1460.25427	-160.91542	-29.69511	1300.35144	-304.12173	-186.29872	1540.43738	-368.88483	55.61988	1299.78015	-446.82162	-88.14055	1222.61670	-30.53712	117.64893	1573.55151	-316.18689	128.37619	1109.23181	30.52665	2.07222	922.09869	-400.90512	-170.89453	952.05591	-172.32671	-268.16345	999.44843	-461.73233	4.49656	494.43149	-413.76166	-294.59119	512.19623	-137.64760	-84.23296	80.01897	-384.58191	-472.47598	135.09685	-230.58308	
